<?xml version="1.0" encoding="UTF-8"?>
<svg id="Layer_1" xmlns="http://www.w3.org/2000/svg" version="1.1" viewBox="0 0 800 800">
  <!-- Generator: Adobe Illustrator 30.0.0, SVG Export Plug-In . SVG Version: 2.1.1 Build 123)  -->
  <defs>
    <style>
      .st0 {
        fill: #370665;
      }

      .st1 {
        fill: #fff;
      }
    </style>
  </defs>
  <rect class="st1" width="800" height="800"/>
  <g>
    <path class="st0" d="M251.84,347.82c0-12.24-9.84-22.15-22.08-22.15H0v44.29h229.52c12.49,0,22.33-9.91,22.33-22.15Z"/>
    <path class="st0" d="M101.67,199.05H0v44.23h101.67c12.24,0,22.08-9.91,22.08-22.15s-9.84-22.08-22.08-22.08Z"/>
    <path class="st0" d="M0,0v116.85h131.95c1.89,0,3.6,0,5.3.19,280.42,13.5,272.97,410.85,491.45,417.35h5.74c20.88,1.89,37.46,19.68,37.46,41.07,0,22.84-18.48,41.39-41.31,41.39h-281.43c-22.83,0-41.06-18.55-41.06-41.14s16.59-39.43,37.72-41.14l-.25-.19h-151.37c-21.89,0-41.12-16.59-42.57-38.49-1.64-24.04,17.6-43.97,41.12-43.97H5.99c-2.14,0-4.04-.25-5.99-.5v348.58h800V0H0Z"/>
  </g>
</svg>