<?xml version="1.0" encoding="utf-8"?>
<!-- Generator: Adobe Illustrator 30.0.0, SVG Export Plug-In . SVG Version: 9.03 Build 0)  -->
<svg version="1.0" id="Layer_1" xmlns="http://www.w3.org/2000/svg" xmlns:xlink="http://www.w3.org/1999/xlink" x="0px" y="0px"
	 viewBox="0 0 420.31 66.04" style="enable-background:new 0 0 420.31 66.04;" xml:space="preserve">
<style type="text/css">
	.st0{fill:#F58634;}
	.st1{fill:#370665;}
</style>
<g>
	<path class="st0" d="M127.16,17.96c-1.68-0.98-3.56-1.48-5.65-1.48H109.5v31.77h7.25v-9.98h4.77c2.08,0,3.96-0.49,5.65-1.48
		c1.68-0.98,3.01-2.3,3.98-3.94c0.98-1.65,1.48-3.48,1.48-5.48c0-2.03-0.49-3.85-1.48-5.48C130.17,20.26,128.84,18.95,127.16,17.96z
		 M124.27,30.29c-0.72,0.78-1.64,1.17-2.75,1.17h-4.77v-8.17h4.77c1.11,0,2.03,0.4,2.75,1.19c0.73,0.78,1.1,1.74,1.1,2.9
		C125.37,28.53,125,29.5,124.27,30.29z M142.31,16.6c0.8,0.81,1.21,1.77,1.21,2.88c0,1.12-0.41,2.09-1.21,2.9
		c-0.79,0.79-1.75,1.19-2.88,1.19c-1.11,0-2.07-0.4-2.88-1.19c-0.81-0.8-1.21-1.77-1.21-2.9c0-1.11,0.4-2.07,1.21-2.88
		c0.8-0.8,1.76-1.21,2.88-1.21C140.56,15.4,141.52,15.8,142.31,16.6z M136.04,25.56h6.79v22.69h-6.79V25.56z M168.45,29.15
		c0.78,1.39,1.17,3.11,1.17,5.17v13.94h-6.79V35.31c0-1.42-0.39-2.46-1.17-3.12c-0.78-0.67-1.71-1-2.79-1
		c-1.24,0-2.25,0.39-3.04,1.15c-0.79,0.75-1.19,1.93-1.19,3.52v12.4h-6.79V25.56h6.79v2.12c0.61-0.84,1.47-1.51,2.58-2
		c1.12-0.5,2.43-0.75,3.92-0.75c1.54,0,2.95,0.35,4.23,1.06C166.65,26.71,167.68,27.76,168.45,29.15z M180.57,16.6
		c0.8,0.81,1.21,1.77,1.21,2.88c0,1.12-0.41,2.09-1.21,2.9c-0.79,0.79-1.75,1.19-2.88,1.19c-1.11,0-2.07-0.4-2.88-1.19
		c-0.81-0.8-1.21-1.77-1.21-2.9c0-1.11,0.4-2.07,1.21-2.88c0.8-0.8,1.76-1.21,2.88-1.21C178.82,15.4,179.78,15.8,180.57,16.6z
		 M174.3,25.56h6.79v22.69h-6.79V25.56z M203.06,26.52c-1.81-1.05-3.83-1.58-6.06-1.58c-2.21,0-4.23,0.53-6.06,1.58
		c-1.83,1.06-3.29,2.49-4.38,4.29c-1.07,1.79-1.6,3.83-1.6,6.1c0,2.24,0.53,4.27,1.6,6.08c1.08,1.81,2.54,3.24,4.38,4.29
		c1.83,1.05,3.85,1.58,6.06,1.58c2.23,0,4.26-0.53,6.06-1.58c1.82-1.05,3.26-2.48,4.33-4.29c1.08-1.82,1.62-3.84,1.62-6.08
		c0-2.28-0.54-4.31-1.62-6.1C206.32,29.01,204.88,27.58,203.06,26.52z M200.7,40.79c-1,0.99-2.24,1.48-3.71,1.48
		c-1.49,0-2.73-0.49-3.73-1.48c-1-0.98-1.5-2.28-1.5-3.88c0-1.61,0.5-2.91,1.5-3.9c1-0.98,2.24-1.48,3.73-1.48
		c1.47,0,2.71,0.49,3.71,1.48c1,0.99,1.5,2.29,1.5,3.9C202.2,38.52,201.7,39.81,200.7,40.79z M233.48,29.15
		c0.78,1.39,1.17,3.11,1.17,5.17v13.94h-6.79V35.31c0-1.42-0.39-2.46-1.17-3.12c-0.78-0.67-1.71-1-2.79-1
		c-1.24,0-2.25,0.39-3.04,1.15c-0.79,0.75-1.19,1.93-1.19,3.52v12.4h-6.79V25.56h6.79v2.12c0.61-0.84,1.47-1.51,2.58-2
		c1.12-0.5,2.43-0.75,3.92-0.75c1.54,0,2.95,0.35,4.23,1.06C231.69,26.71,232.71,27.76,233.48,29.15z M246.81,41.27h11.35v6.98
		h-18.6V16.48h7.25V41.27z M278.08,26.52c-1.81-1.05-3.83-1.58-6.06-1.58c-2.21,0-4.23,0.53-6.06,1.58
		c-1.83,1.06-3.29,2.49-4.38,4.29c-1.07,1.79-1.6,3.83-1.6,6.1c0,2.24,0.53,4.27,1.6,6.08c1.08,1.81,2.54,3.24,4.38,4.29
		c1.83,1.05,3.85,1.58,6.06,1.58c2.23,0,4.26-0.53,6.06-1.58c1.82-1.05,3.26-2.48,4.33-4.29c1.08-1.82,1.62-3.84,1.62-6.08
		c0-2.28-0.54-4.31-1.62-6.1C281.34,29.01,279.89,27.58,278.08,26.52z M275.72,40.79c-1,0.99-2.24,1.48-3.71,1.48
		c-1.49,0-2.73-0.49-3.73-1.48c-1-0.98-1.5-2.28-1.5-3.88c0-1.61,0.5-2.91,1.5-3.9c1-0.98,2.24-1.48,3.73-1.48
		c1.47,0,2.71,0.49,3.71,1.48c1,0.99,1.5,2.29,1.5,3.9C277.22,38.52,276.72,39.81,275.72,40.79z M304.54,27.87
		c-0.75-0.93-1.68-1.65-2.77-2.17c-1.08-0.51-2.37-0.77-3.85-0.77c-2.16,0-4.07,0.53-5.75,1.58c-1.67,1.06-2.99,2.45-3.96,4.19
		c-0.97,1.74-1.46,3.66-1.46,5.75c0,2.08,0.48,3.99,1.46,5.73c0.97,1.74,2.29,3.14,3.96,4.21c1.68,1.06,3.59,1.58,5.75,1.58
		c1.48,0,2.77-0.26,3.85-0.77c1.09-0.51,2.02-1.24,2.77-2.19v2.1c0,1.59-0.46,2.8-1.38,3.62c-0.91,0.82-2.16,1.23-3.75,1.23
		c-1.49,0-2.62-0.29-3.4-0.85c-0.77-0.56-1.35-1.23-1.77-2.02l-5.81,3.38c1.05,1.83,2.52,3.2,4.4,4.1c1.88,0.92,3.99,1.38,6.35,1.38
		c1.51,0,2.98-0.22,4.4-0.65c1.43-0.42,2.71-1.06,3.85-1.92c1.15-0.86,2.06-1.98,2.73-3.35c0.67-1.38,1-3.02,1-4.92V25.56h-6.62
		V27.87z M303,40.27c-1.03,0.96-2.34,1.44-3.94,1.44c-1.61,0-2.93-0.48-3.96-1.44c-1.03-0.97-1.54-2.24-1.54-3.81
		c0-1.58,0.51-2.85,1.54-3.81c1.03-0.97,2.34-1.46,3.96-1.46c1.59,0,2.91,0.49,3.94,1.46c1.03,0.96,1.54,2.23,1.54,3.81
		C304.54,38.03,304.02,39.3,303,40.27z M316.17,25.56h6.79v22.69h-6.79V25.56z M322.44,16.6c0.8,0.81,1.21,1.77,1.21,2.88
		c0,1.12-0.41,2.09-1.21,2.9c-0.79,0.79-1.75,1.19-2.88,1.19c-1.11,0-2.07-0.4-2.88-1.19c-0.81-0.8-1.21-1.77-1.21-2.9
		c0-1.11,0.4-2.07,1.21-2.88c0.8-0.8,1.76-1.21,2.88-1.21C320.69,15.4,321.64,15.8,322.44,16.6z M344.74,38.02
		c0.55,0.89,0.83,2.03,0.83,3.42c0,1.72-0.45,3.14-1.35,4.25c-0.89,1.1-2.06,1.91-3.5,2.42c-1.43,0.51-2.96,0.77-4.58,0.77
		c-2.28,0-4.26-0.44-5.94-1.31c-1.67-0.88-2.94-2.23-3.81-4.08l5.9-3.35c0.59,1.79,1.88,2.69,3.85,2.69c1.62,0,2.44-0.47,2.44-1.42
		c0-0.42-0.27-0.74-0.81-0.98c-0.54-0.25-1.24-0.48-2.08-0.71c-0.85-0.23-1.74-0.5-2.69-0.79c-0.93-0.3-1.82-0.72-2.67-1.25
		c-0.85-0.54-1.54-1.23-2.08-2.08c-0.54-0.84-0.81-1.92-0.81-3.21c0-1.67,0.41-3.04,1.23-4.12c0.83-1.09,1.92-1.92,3.27-2.48
		c1.34-0.55,2.81-0.83,4.4-0.83c1.83,0,3.53,0.41,5.08,1.23c1.57,0.81,2.82,2.02,3.75,3.62l-5.81,3.12
		c-0.29-0.61-0.68-1.09-1.17-1.46c-0.49-0.36-1.1-0.54-1.85-0.54c-1.28,0-1.92,0.43-1.92,1.27c0,0.42,0.27,0.75,0.81,1
		c0.54,0.24,1.23,0.47,2.08,0.69c0.84,0.21,1.73,0.47,2.67,0.77c0.94,0.29,1.84,0.71,2.69,1.25
		C343.5,36.43,344.19,37.13,344.74,38.02z M357.83,25.56h4.67v6.54h-4.67v8.02c0,0.97,0.4,1.56,1.21,1.77
		c0.82,0.21,1.97,0.27,3.46,0.19v6.17c-2.97,0.3-5.29,0.21-6.96-0.29c-1.66-0.5-2.82-1.4-3.5-2.69c-0.68-1.3-1.02-3.02-1.02-5.15
		V32.1h-3.62v-6.54h3.62v-4.31l6.81-2.04V25.56z M373.08,16.6c0.8,0.81,1.21,1.77,1.21,2.88c0,1.12-0.41,2.09-1.21,2.9
		c-0.79,0.79-1.75,1.19-2.88,1.19c-1.11,0-2.07-0.4-2.88-1.19c-0.81-0.8-1.21-1.77-1.21-2.9c0-1.11,0.4-2.07,1.21-2.88
		c0.8-0.8,1.76-1.21,2.88-1.21C371.33,15.4,372.29,15.8,373.08,16.6z M366.81,25.56h6.79v22.69h-6.79V25.56z M385.72,33.1
		c-0.96,0.96-1.44,2.23-1.44,3.81c0,1.57,0.48,2.84,1.44,3.81c0.97,0.96,2.2,1.44,3.69,1.44c1,0,1.89-0.22,2.67-0.67
		c0.79-0.46,1.36-1.08,1.73-1.88l5.96,3.42c-0.97,1.75-2.37,3.16-4.19,4.23c-1.81,1.07-3.83,1.6-6.06,1.6
		c-2.31,0-4.37-0.53-6.19-1.58c-1.81-1.05-3.24-2.48-4.29-4.29c-1.04-1.82-1.56-3.84-1.56-6.08c0-2.28,0.52-4.31,1.56-6.1
		c1.05-1.8,2.48-3.23,4.29-4.29c1.82-1.05,3.88-1.58,6.19-1.58c2.21,0,4.22,0.53,6.04,1.58c1.83,1.06,3.23,2.46,4.21,4.21
		l-5.96,3.46c-0.39-0.79-0.97-1.41-1.75-1.85c-0.77-0.46-1.65-0.69-2.65-0.69C387.91,31.65,386.69,32.13,385.72,33.1z M420.31,41.44
		c0,1.72-0.45,3.14-1.35,4.25c-0.89,1.1-2.06,1.91-3.5,2.42c-1.43,0.51-2.96,0.77-4.58,0.77c-2.28,0-4.26-0.44-5.94-1.31
		c-1.67-0.88-2.94-2.23-3.81-4.08l5.9-3.35c0.59,1.79,1.88,2.69,3.85,2.69c1.62,0,2.44-0.47,2.44-1.42c0-0.42-0.27-0.74-0.81-0.98
		c-0.54-0.25-1.24-0.48-2.08-0.71c-0.85-0.23-1.74-0.5-2.69-0.79c-0.93-0.3-1.82-0.72-2.67-1.25c-0.85-0.54-1.54-1.23-2.08-2.08
		c-0.54-0.84-0.81-1.92-0.81-3.21c0-1.67,0.41-3.04,1.23-4.12c0.83-1.09,1.92-1.92,3.27-2.48c1.34-0.55,2.81-0.83,4.4-0.83
		c1.83,0,3.53,0.41,5.08,1.23c1.57,0.81,2.82,2.02,3.75,3.62l-5.81,3.12c-0.29-0.61-0.68-1.09-1.17-1.46
		c-0.49-0.36-1.1-0.54-1.85-0.54c-1.28,0-1.92,0.43-1.92,1.27c0,0.42,0.27,0.75,0.81,1c0.54,0.24,1.23,0.47,2.08,0.69
		c0.84,0.21,1.73,0.47,2.67,0.77c0.94,0.29,1.84,0.71,2.69,1.25c0.84,0.53,1.54,1.24,2.08,2.12
		C420.03,38.91,420.31,40.05,420.31,41.44z"/>
	<path class="st1" d="M38.26,26.87h-5.1H38.26z M33.16,0v9.65h10.9c0.16,0,0.3,0,0.44,0.02c23.16,1.11,22.54,33.92,40.58,34.45h0.08
		c0.1,0,0.2,0,0.32,0c0.02,0,0.06,0,0.08,0c1.72,0.16,3.09,1.62,3.09,3.39c0,1.89-1.53,3.42-3.41,3.42H61.99
		c-1.89,0-3.39-1.53-3.39-3.4c0-1.79,1.37-3.26,3.11-3.4l-0.02-0.02h-12.5c-1.81,0-3.4-1.37-3.52-3.18
		c-0.14-1.98,1.45-3.63,3.4-3.63H33.65c-0.18,0-0.33-0.02-0.49-0.04v28.78h66.06V0H33.16z M22.82,26.87c0.02,0,0.06,0,0.08,0h15.36
		H22.82z M22.82,26.87c0.02,0,0.06,0,0.08,0h15.36H22.82z M53.95,28.71c0-1.01-0.81-1.83-1.82-1.83H14.32
		c-1.01,0-1.82,0.82-1.82,1.83s0.81,1.83,1.82,1.83h37.79C53.14,30.54,53.95,29.72,53.95,28.71z M43.38,18.26
		c0-1.01-0.81-1.82-1.82-1.82H1.82C0.81,16.43,0,17.24,0,18.26c0,1.01,0.81,1.83,1.82,1.83h39.73
		C42.56,20.08,43.38,19.27,43.38,18.26z"/>
</g>
</svg>
